<?xml version="1.0" encoding="UTF-8" standalone="no"?>
<!DOCTYPE svg PUBLIC "-//W3C//DTD SVG 1.1//EN" "http://www.w3.org/Graphics/SVG/1.1/DTD/svg11.dtd">
<svg width="100%" height="100%" viewBox="0 0 500 500" version="1.1" xmlns="http://www.w3.org/2000/svg" xmlns:xlink="http://www.w3.org/1999/xlink" xml:space="preserve" xmlns:serif="http://www.serif.com/" style="fill-rule:evenodd;clip-rule:evenodd;stroke-linejoin:round;stroke-miterlimit:1.41421;">
    <path d="M500,40.089C500,17.948 482.052,0 459.911,0C366.221,0 133.779,0 40.089,0C17.948,0 0,17.948 0,40.089C0,133.779 0,366.221 0,459.911C0,482.052 17.948,500 40.089,500C133.779,500 366.221,500 459.911,500C482.052,500 500,482.052 500,459.911C500,366.221 500,133.779 500,40.089ZM304.5,116L267.5,116L267.5,384L304.5,384L304.5,116ZM232.5,116L195.5,116L195.5,322L232.5,322L232.5,116ZM353.5,223C368.402,223 380.5,235.098 380.5,250C380.5,264.902 368.402,277 353.5,277C338.598,277 326.5,264.902 326.5,250C326.5,235.098 338.598,223 353.5,223ZM146.5,223C161.402,223 173.5,235.098 173.5,250C173.5,264.902 161.402,277 146.5,277C131.598,277 119.5,264.902 119.5,250C119.5,235.098 131.598,223 146.5,223Z" style="fill:white;"/>
</svg>
